# xmcd
#
# Track frame offsets: 
#        150
#        11378
#        23685
#        35917
#        47547
#        66227
#        79393
#        92834
#        108139
#        126959
#        137495
#        149451
#        163338
#
# Disc length: 2301 seconds
#
# Revision: 0
# Processed by: cddbd v1.5.1PL2 Copyright (c) Steve Scherf et al.
# Submitted via: ExactAudioCopy v0.95a5
#
DISCID=b008fb0d
DTITLE=Crosscut Bluegrass - Greatest Of These
DYEAR=1900
DGENRE=Bluegrass
TTITLE0=Stand And Shake Hands
TTITLE1=Greatest Of These
TTITLE2=Going Up Home To Live In Green Pastures
TTITLE3=Lift Your Eyes
TTITLE4=GOD Saves Old Sinners
TTITLE5=How Far Can You Get
TTITLE6=There Is A Place
TTITLE7=What Would You Give
TTITLE8=What A Friend
TTITLE9=Saved Through Jesus' Blood
TTITLE10=Am Empty Mansion
TTITLE11=Remember The Cross
TTITLE12=Fly Fly Fly
EXTD=
EXTT0=
EXTT1=
EXTT2=
EXTT3=
EXTT4=
EXTT5=
EXTT6=
EXTT7=
EXTT8=
EXTT9=
EXTT10=
EXTT11=
EXTT12=
PLAYORDER=
